<svg width="41" height="45" viewBox="0 0 41 45" fill="none" xmlns="http://www.w3.org/2000/svg">
<path d="M14.756 17.6871V34.0508C14.756 34.3159 14.6708 34.5337 14.5003 34.7042C14.3299 34.8746 14.1121 34.9599 13.8469 34.9599H12.0288C11.7636 34.9599 11.5458 34.8746 11.3753 34.7042C11.2049 34.5337 11.1197 34.3159 11.1197 34.0508V17.6871C11.1197 17.422 11.2049 17.2042 11.3753 17.0337C11.5458 16.8633 11.7636 16.7781 12.0288 16.7781H13.8469C14.1121 16.7781 14.3299 16.8633 14.5003 17.0337C14.6708 17.2042 14.756 17.422 14.756 17.6871ZM22.0288 17.6871V34.0508C22.0288 34.3159 21.9435 34.5337 21.7731 34.7042C21.6026 34.8746 21.3848 34.9599 21.1197 34.9599H19.3015C19.0363 34.9599 18.8185 34.8746 18.6481 34.7042C18.4776 34.5337 18.3924 34.3159 18.3924 34.0508V17.6871C18.3924 17.422 18.4776 17.2042 18.6481 17.0337C18.8185 16.8633 19.0363 16.7781 19.3015 16.7781H21.1197C21.3848 16.7781 21.6026 16.8633 21.7731 17.0337C21.9435 17.2042 22.0288 17.422 22.0288 17.6871ZM29.3015 17.6871V34.0508C29.3015 34.3159 29.2163 34.5337 29.0458 34.7042C28.8753 34.8746 28.6575 34.9599 28.3924 34.9599H26.5742C26.3091 34.9599 26.0913 34.8746 25.9208 34.7042C25.7503 34.5337 25.6651 34.3159 25.6651 34.0508V17.6871C25.6651 17.422 25.7503 17.2042 25.9208 17.0337C26.0913 16.8633 26.3091 16.7781 26.5742 16.7781H28.3924C28.6575 16.7781 28.8753 16.8633 29.0458 17.0337C29.2163 17.2042 29.3015 17.422 29.3015 17.6871ZM32.9378 38.2553V11.3235H7.4833V38.2553C7.4833 38.672 7.54959 39.0555 7.68216 39.4059C7.81474 39.7563 7.95205 40.012 8.09409 40.1729C8.23614 40.3339 8.33557 40.4144 8.39239 40.4144H32.0288C32.0856 40.4144 32.185 40.3339 32.327 40.1729C32.4691 40.012 32.6064 39.7563 32.739 39.4059C32.8716 39.0555 32.9378 38.672 32.9378 38.2553ZM13.8469 7.68715H26.5742L25.2106 4.36329C25.078 4.19283 24.917 4.08867 24.7276 4.05079H15.7219C15.5325 4.08867 15.3716 4.19283 15.239 4.36329L13.8469 7.68715ZM40.2106 8.59624V10.4144C40.2106 10.6796 40.1253 10.8974 39.9549 11.0678C39.7844 11.2383 39.5666 11.3235 39.3015 11.3235H36.5742V38.2553C36.5742 39.8273 36.1291 41.1862 35.239 42.332C34.3488 43.4779 33.2788 44.0508 32.0288 44.0508H8.39239C7.14239 44.0508 6.07231 43.4968 5.18216 42.3888C4.29201 41.2809 3.84694 39.9409 3.84694 38.369V11.3235H1.11966C0.854511 11.3235 0.636708 11.2383 0.466253 11.0678C0.295799 10.8974 0.210571 10.6796 0.210571 10.4144V8.59624C0.210571 8.33109 0.295799 8.11329 0.466253 7.94283C0.636708 7.77238 0.854511 7.68715 1.11966 7.68715H9.89807L11.8867 2.94283C12.1708 2.24207 12.6822 1.64548 13.4208 1.15306C14.1594 0.660633 14.9075 0.414421 15.6651 0.414421H24.756C25.5136 0.414421 26.2617 0.660633 27.0003 1.15306C27.739 1.64548 28.2503 2.24207 28.5344 2.94283L30.5231 7.68715H39.3015C39.5666 7.68715 39.7844 7.77238 39.9549 7.94283C40.1253 8.11329 40.2106 8.33109 40.2106 8.59624Z" fill="white"/>
</svg>
